# xmcd CD database file
#
# Track frame offsets:
#	182
#	29582
#	49670
#	105960
#	129792
#	153710
#	185950
#	206277
#	231242
#	285267
#
# Disc length: 4269 seconds
#
# Revision: 0
# Processed by: cddbd v1.5PL3 Copyright (c) Steve Scherf et al.
# Submitted via: CDex 1.51
#
DISCID=8210ab0a
DTITLE=Oscar D'Leon - Live
DYEAR=1996
DGENRE=Salsa
TTITLE0=Mulata Coqueta
TTITLE1=Contestame
TTITLE2=El Que Siembra Su Maiz
TTITLE3=Juanita Morel
TTITLE4=Sale A Buscar
TTITLE5=Calculadora
TTITLE6=Lloraras
TTITLE7=Medley El Baile Del Suavecito, El Manicero
TTITLE8=Melao De Cana
TTITLE9=Mata Siguaraya
EXTD=YEAR: 1996
EXTT0=
EXTT1=
EXTT2=
EXTT3=
EXTT4=
EXTT5=
EXTT6=
EXTT7=
EXTT8=
EXTT9=
PLAYORDER=
